<?xml version="1.0" encoding="iso-8859-1"?>
<!-- Generator: Adobe Illustrator 21.0.0, SVG Export Plug-In . SVG Version: 6.00 Build 0)  -->
<svg xmlns="http://www.w3.org/2000/svg" xmlns:xlink="http://www.w3.org/1999/xlink" version="1.1" id="Capa_1" x="0px" y="0px" viewBox="0 0 511.498 511.498" style="enable-background:new 0 0 511.498 511.498;" xml:space="preserve" width="30" height="30">
<g>
	<path style="fill:#FFA035;" d="M261.194,2.342C259.777,0.847,257.809,0,255.749,0c-2.06,0-4.028,0.847-5.445,2.342   c-3.966,4.187-23.752,25.796-23.752,40.045c0,16.1,13.098,29.197,29.197,29.197s29.197-13.098,29.197-29.197   C284.946,28.139,265.16,6.529,261.194,2.342z"/>
	<path style="fill:#F78819;" d="M261.194,2.342C259.777,0.847,257.809,0,255.749,0c-2.06,0-4.028,0.847-5.445,2.342   c-1.33,1.404-4.441,4.772-7.986,9.16c7.027,8.697,15.766,21.415,15.766,30.886c0,11.258-6.409,21.042-15.766,25.912   c4.024,2.094,8.59,3.285,13.431,3.285c16.1,0,29.197-13.098,29.197-29.197C284.946,28.139,265.16,6.529,261.194,2.342z"/>
	<path style="fill:#FFF5CF;" d="M269.285,56.585h-27.072c-10.343,0-18.758,8.415-18.758,18.758v47.042c0,4.142,3.357,7.5,7.5,7.5   h49.588c4.143,0,7.5-3.358,7.5-7.5V75.343C288.043,65,279.628,56.585,269.285,56.585z"/>
	<path style="fill:#FFECA1;" d="M269.285,56.585h-27.072c-1.305,0-2.577,0.135-3.808,0.39c8.523,1.765,14.95,9.329,14.95,18.368   v47.042c0,4.142-3.357,7.5-7.5,7.5h34.688c4.143,0,7.5-3.358,7.5-7.5V75.343C288.043,65,279.628,56.585,269.285,56.585z"/>
	<path style="fill:#FFBB64;" d="M423.328,235.711H88.17c-15.885,0-28.808,12.923-28.808,28.808v112.683   c0,4.723,3.843,8.565,8.565,8.565H443.57c4.723,0,8.565-3.842,8.565-8.565V264.519   C452.136,248.634,439.213,235.711,423.328,235.711z"/>
	<path style="fill:#FFBB64;" d="M377.508,114.885H133.99c-15.885,0-28.808,12.923-28.808,28.808v98.453   c0,4.723,3.843,8.565,8.565,8.565H397.75c4.723,0,8.565-3.842,8.565-8.565v-98.453   C406.315,127.808,393.393,114.885,377.508,114.885z"/>
	<path style="fill:#FFAD47;" d="M423.328,235.711h-34.831c15.885,0,28.808,12.923,28.808,28.808v112.683   c0,4.723-3.843,8.565-8.566,8.565h34.831c4.723,0,8.565-3.842,8.565-8.565V264.519   C452.136,248.634,439.213,235.711,423.328,235.711z"/>
	<path style="fill:#FFAD47;" d="M377.508,114.885h-34.831c15.885,0,28.808,12.923,28.808,28.808v98.453   c0,4.723-3.843,8.565-8.565,8.565h34.831c4.723,0,8.565-3.842,8.565-8.565v-98.453   C406.315,127.808,393.393,114.885,377.508,114.885z"/>
	<path style="fill:#6E563D;" d="M423.328,235.711H88.17c-15.885,0-28.808,12.923-28.808,28.808v20.74   c0,3.614,2.577,6.713,6.13,7.373c5.404,1.004,10.318,3.597,14.213,7.498c7.96,7.973,18.549,12.364,29.815,12.364   c11.266,0,21.854-4.391,29.814-12.364c5.126-5.135,11.944-7.962,19.199-7.962c7.255,0,14.073,2.828,19.199,7.962   c7.96,7.973,18.549,12.364,29.815,12.364c11.266,0,21.855-4.391,29.814-12.364c5.126-5.134,11.943-7.962,19.198-7.962   c7.255,0,14.074,2.828,19.2,7.962c7.96,7.973,18.548,12.364,29.814,12.364c11.267,0,21.854-4.391,29.814-12.364   c5.126-5.135,11.944-7.962,19.2-7.962c7.255,0,14.073,2.828,19.199,7.962c7.96,7.973,18.548,12.364,29.814,12.364   s21.855-4.391,29.814-12.364c3.568-3.574,8.043-6.074,12.938-7.229c3.386-0.799,5.778-3.821,5.778-7.3v-21.083   C452.136,248.634,439.213,235.711,423.328,235.711z"/>
	<path style="fill:#6E563D;" d="M377.508,114.885H133.99c-15.885,0-28.808,12.923-28.808,28.808v37.619   c0,2.107,0.887,4.118,2.443,5.539c1.556,1.42,3.631,2.12,5.737,1.931c9.793-0.893,19.017-5.22,25.972-12.186   c5.126-5.134,11.943-7.962,19.198-7.962c7.256,0,14.074,2.828,19.2,7.962c7.96,7.973,18.548,12.364,29.814,12.364   s21.854-4.391,29.814-12.364c5.126-5.135,11.944-7.962,19.2-7.962c7.255,0,14.073,2.828,19.199,7.962   c7.96,7.973,18.548,12.364,29.814,12.364c11.267,0,21.854-4.391,29.814-12.364c5.126-5.135,11.944-7.962,19.2-7.962   c7.255,0,14.073,2.828,19.199,7.962c6.541,6.552,14.838,10.687,23.994,11.958c2.148,0.298,4.321-0.348,5.956-1.773   c1.636-1.424,2.575-3.487,2.575-5.656v-37.432C406.315,127.808,393.393,114.885,377.508,114.885z"/>
	<path style="fill:#A58260;" d="M342.461,472.357c-22.853-17.819-36.238-37.562-39.786-58.681c-0.607-3.612-3.733-6.257-7.397-6.257   h-79.058c-3.662,0-6.789,2.646-7.396,6.257c-3.549,21.12-16.935,40.862-39.787,58.681c-7.515,5.86-10.374,15.454-7.284,24.441   c3.07,8.93,11.168,14.699,20.631,14.699h146.731c9.462,0,17.561-5.769,20.63-14.699   C352.835,487.812,349.976,478.218,342.461,472.357z"/>
	<path style="fill:#8C6B50;" d="M342.461,472.357c-22.853-17.819-36.238-37.562-39.786-58.681c-0.607-3.612-3.733-6.257-7.397-6.257   h-41.732c3.663,0,6.79,2.646,7.397,6.257c3.548,21.119,16.934,40.861,39.786,58.681c7.515,5.86,10.374,15.454,7.284,24.442   c-3.069,8.929-11.168,14.699-20.63,14.699h41.732c9.462,0,17.561-5.769,20.63-14.699   C352.835,487.812,349.976,478.218,342.461,472.357z"/>
	<path style="fill:#FFDF65;" d="M468.252,370.767H43.246c-14.241,0-25.827,11.586-25.827,25.827   c0,14.241,11.586,25.826,25.827,25.826h425.006c14.241,0,25.827-11.585,25.827-25.826   C494.079,382.353,482.493,370.767,468.252,370.767z"/>
	<path style="fill:#FFCD2C;" d="M468.252,370.767h-38.149c14.241,0,25.827,11.586,25.827,25.827   c0,14.241-11.586,25.826-25.827,25.826h38.149c14.241,0,25.827-11.585,25.827-25.826   C494.079,382.353,482.493,370.767,468.252,370.767z"/>
	<path style="fill:#604B35;" d="M423.328,235.711h-34.831c15.885,0,28.808,12.923,28.808,28.808v45.698   c6-2.057,11.5-5.465,16.114-10.087c3.568-3.574,8.043-6.074,12.938-7.229c3.386-0.799,5.778-3.821,5.778-7.3v-21.083   C452.136,248.634,439.213,235.711,423.328,235.711z"/>
	<path style="fill:#604B35;" d="M377.508,114.885h-34.831c15.885,0,28.808,12.923,28.808,28.808v30.847   c0.799,0.639,1.572,1.321,2.305,2.056c6.541,6.552,14.838,10.687,23.994,11.958c2.148,0.298,4.321-0.348,5.956-1.773   c1.636-1.424,2.575-3.487,2.575-5.656v-37.432C406.315,127.808,393.393,114.885,377.508,114.885z"/>
</g>















</svg>
