<?xml version="1.0" encoding="UTF-8" standalone="no"?>
<svg width="128px" height="133px" viewBox="0 0 128 133" version="1.1" xmlns="http://www.w3.org/2000/svg" xmlns:xlink="http://www.w3.org/1999/xlink">
    <!-- Generator: Sketch 47.1 (45422) - http://www.bohemiancoding.com/sketch -->
    <title>Group 2</title>
    <desc>Created with Sketch.</desc>
    <defs>
        <path d="M24.5620649,113.908731 C18.6526661,112.459495 13.6651429,108.811688 10.5176496,103.63657 C4.02172966,92.9537075 7.48690249,79.0129508 18.242892,72.5599918 C28.9984164,66.1084188 43.0339943,69.5501817 49.5303794,80.2335062 C56.0262993,90.9163686 52.5606614,104.856663 41.805137,111.30916 C38.204148,113.469386 34.1664077,114.57768 30.0649454,114.57768 C28.2318922,114.57768 26.387211,114.356391 24.5620649,113.908731 Z" id="path-1"></path>
        <path d="M29.950152,108.461482 C24.3852742,108.461949 18.9520061,105.597425 15.8711447,100.424202 C11.1916408,92.5665953 13.6880818,82.3125521 21.4360225,77.5668136 C29.1848835,72.8215419 39.2953548,75.353318 43.9743986,83.2104576 C46.2412131,87.0167554 46.9107655,91.4904155 45.8597293,95.8077354 C44.8086931,100.124589 42.1626956,103.768479 38.4090607,106.067846 C35.7621429,107.689116 32.8377405,108.461016 29.950152,108.461482 L29.950152,108.461482 Z" id="path-2"></path>
        <path d="M44.5170921,54.7330444 C37.3823948,52.9628569 31.3607215,48.5071987 27.5606036,42.1859874 C19.7177714,29.1372739 23.9014389,12.1091655 36.8876551,4.22711957 C49.8733096,-3.65323349 66.8191284,0.55075006 74.6625222,13.6000279 C82.5053544,26.6487414 78.3211253,43.6762855 65.3354708,51.5577671 C60.987826,54.1964016 56.1128706,55.5501408 51.1609807,55.5501408 C48.9478487,55.5501408 46.7206775,55.2798444 44.5170921,54.7330444 Z" id="path-3"></path>
        <path d="M51.1452569,48.0179566 C44.354238,48.0185208 37.723827,44.5548898 33.9641419,38.2997009 C28.2535762,28.7986981 31.3000723,16.4000502 40.7551608,10.6617537 C50.2113724,4.92402154 62.5495413,7.98531158 68.2595455,17.4857501 C71.0258201,22.0881246 71.8428988,27.4974382 70.5602818,32.7177136 C69.2776648,37.9374247 66.0486597,42.3434252 61.467965,45.1236973 C58.2378368,47.0840515 54.6690842,48.0173923 51.1452569,48.0179566 L51.1452569,48.0179566 Z" id="path-4"></path>
        <path d="M110.095583,107.38519 C105.462371,106.248929 101.551947,103.388898 99.0841823,99.3313921 C93.9911133,90.9555875 96.7079516,80.0254595 105.141091,74.9660737 C113.573865,69.9077745 124.578337,72.6062585 129.671771,80.9824253 C134.76484,89.3582299 132.047637,100.287996 123.614862,105.347019 C120.791538,107.040725 117.625784,107.909674 114.410068,107.909674 C112.972879,107.909674 111.526573,107.736174 110.095583,107.38519 Z" id="path-5"></path>
        <path d="M114.580935,102.925293 C110.217841,102.925659 105.957935,100.679755 103.542413,96.6237341 C99.8734885,90.4630468 101.830801,82.4234542 107.905506,78.7025996 C113.980933,74.9821109 121.907959,76.9671277 125.576522,83.1274491 C127.353798,86.1117435 127.878755,89.6192774 127.054699,93.0042342 C126.230643,96.3888252 124.156072,99.2457858 121.213068,101.048584 C119.137775,102.319726 116.844923,102.924928 114.580935,102.925293 L114.580935,102.925293 Z" id="path-6"></path>
    </defs>
    <g id="界面1" stroke="none" stroke-width="1" fill="none" fill-rule="evenodd">
        <g id="缺省页" transform="translate(-1209.000000, -206.000000)">
            <g id="Group-2" transform="translate(1202.000000, 206.000000)">
                <path d="M60.5959114,125.287861 C58.6022011,125.287861 56.655222,124.277665 55.5512553,122.453124 L44.5296325,104.235424 C42.8528615,101.463969 43.7472319,97.8476812 46.5233428,96.1732603 C49.298991,94.4988393 52.922741,95.3921718 54.5990493,98.1636271 L65.6211347,116.381789 C67.297443,119.152782 66.4030726,122.769993 63.6269618,124.443952 C62.6784572,125.015334 61.6309381,125.287861 60.5959114,125.287861 L60.5959114,125.287861 Z" id="Fill-20" stroke="#128BF7" stroke-width="2" fill="#B7DCFC" transform="translate(55.075218, 110.308291) rotate(-24.000000) translate(-55.075218, -110.308291) "></path>
                <g id="Fill-22" transform="translate(30.023961, 91.941886) rotate(-24.000000) translate(-30.023961, -91.941886) ">
                    <use fill="#B7DCFC" fill-rule="evenodd" xlink:href="#path-1"></use>
                    <path stroke="#128BF7" stroke-width="2" d="M24.8002494,112.937511 L24.8002778,112.937518 C26.5386429,113.363893 28.3031305,113.57768 30.0649454,113.57768 C34.0062736,113.57768 37.863254,112.50775 41.2906892,110.451639 C51.5712981,104.284055 54.8832949,90.9613602 48.6759497,80.7530733 C42.4657974,70.5404595 29.042058,67.2483479 18.7573505,73.417507 C8.47646633,79.5854309 5.16461217,92.9085154 11.3720372,103.116934 C14.3817737,108.065552 19.1475212,111.551221 24.8002494,112.937511 Z"></path>
                </g>
                <g id="Fill-24" transform="translate(29.927900, 91.817516) rotate(-24.000000) translate(-29.927900, -91.817516) ">
                    <use fill="#FFFFFF" fill-rule="evenodd" xlink:href="#path-2"></use>
                    <path stroke="#128BF7" stroke-width="2" d="M29.9500681,107.461482 L29.9499904,107.461482 C32.7288865,107.461033 35.4598666,106.701587 37.8867049,105.215118 C41.414408,103.054151 43.8993826,99.6321215 44.888107,95.5711974 C45.8772323,91.5081878 45.2479033,87.3032063 43.1152102,83.722117 C38.7204506,76.3423528 29.230721,73.9660813 21.9583446,78.4195619 C14.678466,82.8786048 12.3301893,92.5240245 16.7303236,99.9125263 C19.5530385,104.652284 24.5818064,107.461933 29.9500681,107.461482 Z"></path>
                </g>
                <g id="Group" transform="translate(29.841064, 91.484623) rotate(-66.000000) translate(-29.841064, -91.484623) translate(22.295425, 85.645467)" fill="#128BF7">
                    <path d="M1.84108229,0.171116148 C1.10481628,0.171116148 0.421532195,0.655219286 0.188898931,1.41186378 C-0.0979342281,2.34460235 0.40996143,3.33832048 1.32283384,3.63139578 C1.49578632,3.68677518 1.67056576,3.71290929 1.84230027,3.71290929 C2.57917526,3.71290929 3.26245935,3.22880615 3.49509261,2.4727839 C3.78192577,1.53942309 3.27403011,0.545704951 2.3611577,0.253251899 C2.18820522,0.197872491 2.01342578,0.171116148 1.84108229,0.171116148" id="Fill-16"></path>
                    <path d="M13.299793,3.84855772 C12.562918,3.84855772 11.8796339,4.33266086 11.6470006,5.08868312 C11.3601675,6.02204392 11.8680631,7.01576206 12.7809355,7.30883735 C12.953888,7.36421676 13.1286675,7.39035086 13.300402,7.39035086 C14.037277,7.39035086 14.72117,6.90624773 14.9538033,6.14960323 C15.2400275,5.21686467 14.7327408,4.22314653 13.8192594,3.93007123 C13.6469159,3.87469183 13.4715275,3.84855772 13.299793,3.84855772" id="Fill-17"></path>
                    <path d="M4.29884845,5.91144924 C3.70234472,5.91144924 3.15021676,6.30234055 2.96150298,6.91373465 C2.72140673,7.69551727 2.80221733,8.60091509 3.18431604,9.39797063 C3.59350732,10.2513451 4.28063103,10.8694211 5.11863234,11.1386063 C5.42365735,11.2359712 5.73662328,11.2846536 6.05239189,11.2846536 C6.60545408,11.2846536 7.1631874,11.1347881 7.68168319,10.8412616 C8.44120947,10.4107562 9.01389042,9.71583829 9.25445378,8.93357839 C9.48614199,8.17947794 9.07554938,7.37621778 8.33751031,7.13901023 L4.71878333,5.97731371 C4.57911645,5.93292679 4.43758111,5.91144924 4.29884845,5.91144924" id="Fill-18" transform="translate(6.072425, 8.598051) rotate(176.000000) translate(-6.072425, -8.598051) "></path>
                </g>
                <path d="M79.1483041,76.1001019 L79.1483041,76.1001019 C76.5734395,77.6530741 73.1950909,76.8203616 71.6399244,74.24913 L58.2273175,52.0734517 C56.6721511,49.50222 57.5066032,46.1286381 60.0809048,44.5756659 C62.6552064,43.0226937 66.034118,43.8559685 67.5892845,46.4266379 L81.0018914,68.6028784 C82.5570579,71.1735478 81.7226058,74.547692 79.1483041,76.1001019" id="Fill-19" fill="#CADCF2"></path>
                <path d="M64.4530142,49.8083845 C52.2574475,57.1707594 36.3992285,53.2574654 29.0335393,41.0673865 C21.6672891,28.8773076 25.5829057,13.0262244 37.7784723,5.66384954 C49.974039,-1.69908595 65.8316971,2.21476866 73.1979472,14.4048476 C80.5636365,26.5949265 76.6485808,42.445449 64.4530142,49.8083845 Z" id="Fill-21" fill="#CADCF2"></path>
                <path d="M66.4962981,18.1779027 C71.7080768,26.9180534 68.9382195,38.2826259 60.3090916,43.5614596 C51.6799638,48.8402934 40.4597512,46.0342331 35.2479725,37.2940824 C30.0361938,28.5539316 32.8066097,17.1893591 41.4357376,11.9105254 C50.0643068,6.63169166 61.2845194,9.43775196 66.4962981,18.1779027" id="Fill-23" fill="#FFFFFF"></path>
                <path d="M76.5162519,78.7702373 C74.0964635,78.7702373 71.7333934,77.5361283 70.3934966,75.3071706 L57.0164305,53.051451 C54.9813149,49.6656924 56.0668222,45.2478418 59.4362188,43.2022793 C62.8050539,41.1567168 67.2032396,42.2480597 69.2377936,45.6338182 L82.6154213,67.8901022 C84.6499753,71.2752964 83.564468,75.6942757 80.1950714,77.7392738 C79.0438609,78.4373044 77.7724753,78.7702373 76.5162519,78.7702373 L76.5162519,78.7702373 Z" id="Fill-20" stroke="#128BF7" stroke-width="2" fill="#B7DCFC"></path>
                <g id="Fill-22">
                    <use fill="#B7DCFC" fill-rule="evenodd" xlink:href="#path-3"></use>
                    <path stroke="#128BF7" stroke-width="2" d="M44.7579006,53.7624717 L44.7579293,53.7624788 C46.8720726,54.2870846 49.0181114,54.5501408 51.1609807,54.5501408 C55.9552407,54.5501408 60.647199,53.2333708 64.8166208,50.7029018 C77.3312421,43.1073079 81.364821,26.692322 73.8054302,14.1151912 C66.2473204,1.54054861 49.9183948,-2.51086366 37.4065157,5.0819784 C24.8915627,12.6779889 20.8581588,29.0934504 28.4176541,41.670755 C32.0810392,47.7645216 37.8810761,52.056265 44.7579006,53.7624717 Z"></path>
                </g>
                <g id="Fill-24">
                    <use fill="#FFFFFF" fill-rule="evenodd" xlink:href="#path-4"></use>
                    <path stroke="#128BF7" stroke-width="2" d="M51.1451738,47.0179566 L51.1450967,47.0179566 C54.5781135,47.0174068 57.9519765,46.0877855 60.9491047,44.2688382 C65.3030973,41.6261639 68.3696701,37.4419398 69.5891645,32.479111 C70.8087852,27.5152314 70.0326514,22.376891 67.4024405,18.0008919 C61.9775108,8.97476686 50.2560851,6.0665785 41.2739875,11.5166332 C32.2900434,16.968992 29.3940597,28.7550298 34.8212373,37.7845432 C38.3050804,43.5807991 44.5148958,47.0185075 51.1451738,47.0179566 Z"></path>
                </g>
                <path d="M108.69834,124.104176 C107.135189,124.104176 105.608677,123.312141 104.743122,121.881625 L96.101715,107.598198 C94.7870574,105.425263 95.4882807,102.589944 97.664866,101.277129 C99.8410886,99.9643141 102.682258,100.664724 103.996553,102.837659 L112.638322,117.121449 C113.952617,119.294022 113.251394,122.130064 111.074808,123.442517 C110.331142,123.890504 109.509844,124.104176 108.69834,124.104176 L108.69834,124.104176 Z" id="Fill-20" stroke="#128BF7" stroke-width="2" fill="#B7DCFC" transform="translate(104.369889, 112.359576) rotate(54.000000) translate(-104.369889, -112.359576) "></path>
                <g id="Fill-22" transform="translate(114.377934, 90.162278) rotate(54.000000) translate(-114.377934, -90.162278) ">
                    <use fill="#B7DCFC" fill-rule="evenodd" xlink:href="#path-5"></use>
                    <path stroke="#128BF7" stroke-width="2" d="M110.333767,106.41397 L110.333796,106.413977 C111.679931,106.744148 113.04609,106.909674 114.410068,106.909674 C117.461064,106.909674 120.4467,106.081455 123.100414,104.489498 C131.05826,99.7153953 133.621844,89.4032349 128.817341,81.5019924 C124.010109,73.5964856 113.617456,71.0477342 105.655549,75.8235889 C97.6974872,80.5979566 95.1340128,90.9104235 99.9385699,98.8117558 C102.268586,102.642775 105.957241,105.340659 110.333767,106.41397 Z"></path>
                </g>
                <g id="Fill-24" transform="translate(114.563488, 89.875738) rotate(54.000000) translate(-114.563488, -89.875738) ">
                    <use fill="#FFFFFF" fill-rule="evenodd" xlink:href="#path-6"></use>
                    <path stroke="#128BF7" stroke-width="2" d="M114.580851,101.925293 L114.580773,101.925294 C116.72001,101.924948 118.822153,101.340372 120.690712,100.195856 C123.407801,98.5314471 125.321338,95.8963387 126.083077,92.7676963 C126.845222,89.6370464 126.360487,86.3981914 124.717334,83.6391086 C121.33306,77.9561712 114.026779,76.1266451 108.427828,79.5553479 C102.821184,82.9895078 101.012038,90.4204774 104.401591,96.1120587 C106.575459,99.7623052 110.447441,101.92564 114.580851,101.925293 Z"></path>
                </g>
                <path d="M61.3387424,30.8985939 C61.3387424,33.7206067 59.0501886,36.0081306 56.2269055,36.0081306 C53.4041724,36.0081306 51.1156187,33.7206067 51.1156187,30.8985939 C51.1156187,28.077131 53.4041724,25.7896071 56.2269055,25.7896071 C59.0501886,25.7896071 61.3387424,28.077131 61.3387424,30.8985939" id="Fill-25" fill="#128BF7"></path>
                <path d="M95.9026369,24.3295459 C95.9026369,26.211254 94.3767894,27.7359925 92.494929,27.7359925 C90.6130686,27.7359925 89.0872211,26.211254 89.0872211,24.3295459 C89.0872211,22.448382 90.6130686,20.9236435 92.494929,20.9236435 C94.3767894,20.9236435 95.9026369,22.448382 95.9026369,24.3295459" id="Fill-26" fill="#128BF7"></path>
                <path d="M57.6901568,23.8432216 C57.2819762,23.8432216 56.8726617,23.6953766 56.5472511,23.3950843 C53.6763808,20.7494055 50.6110579,22.4309273 50.2714743,22.6311222 C49.462483,23.1068727 48.4227563,22.8382204 47.9465456,22.0224838 C47.4714687,21.2067472 47.7265816,20.1580252 48.5265022,19.6684682 C50.4058337,18.520224 54.9785903,17.285689 58.8341963,20.8397233 C59.5292372,21.480577 59.5813936,22.5718691 58.9498475,23.2777286 C58.6142323,23.6528064 58.1527615,23.8432216 57.6901568,23.8432216" id="Fill-27" fill="#128BF7"></path>
                <path d="M90.8257271,55.8762204 L88.952547,52.0201237 C88.4612673,50.793925 88.484393,49.4493308 89.0196679,48.234249 C89.5543787,47.0197231 90.5341179,46.0842324 91.7783923,45.6000895 C93.0232307,45.1159467 94.3870818,45.1398481 95.6189473,45.6662353 C96.8519409,46.1931784 97.8012218,47.1586848 98.2925015,48.3848836 L100.165118,52.2409803 C100.508619,53.0975407 100.082204,54.0658264 99.2130164,54.4043373 C98.3438293,54.7450715 97.3612699,54.3220719 97.0177689,53.4655115 L95.1451529,49.6094148 C94.9860933,49.2119841 94.6758708,48.8984863 94.2725815,48.7256179 C93.8692922,48.5544169 93.4242639,48.5455234 93.0209746,48.7017164 C92.6182493,48.8584653 92.2995661,49.1641812 92.1247134,49.5621678 C91.9492967,49.9595984 91.940272,50.397606 92.0998956,50.7950367 L93.9730757,54.6505775 C94.3160126,55.5071379 93.8901617,56.4759795 93.0209746,56.8144904 C92.8167917,56.8934206 92.6064044,56.9317741 92.3999654,56.9317741 C91.7253724,56.9317741 91.0885702,56.5315642 90.8257271,55.8762204 Z" id="Fill-29" fill="#128BF7"></path>
                <path d="M86.107721,58.3915632 C83.2079643,58.3915632 81.1960035,57.9367285 81.1383251,57.9233674 C80.2273445,57.7073626 79.6658277,56.8054873 79.8852321,55.909179 C80.1046364,55.0134274 81.0201408,54.4611679 81.9277284,54.6749458 C82.506775,54.8096704 96.169221,57.8320664 101.918407,45.7307914 C102.315371,44.8951649 103.32644,44.5333013 104.173522,44.9246707 C105.022301,45.3154834 105.388728,46.3103299 104.99233,47.1453997 C100.439124,56.7286608 91.6527707,58.3915632 86.107721,58.3915632" id="Fill-30" fill="#128BF7"></path>
                <path d="M128.588815,33.5751488 L128.588815,44.4262425" id="Shape" stroke="#128BF7" stroke-width="2.77778"></path>
                <path d="M134.029565,38.9925883 L123.1643,38.9925883" id="Shape" stroke="#128BF7" stroke-width="2.77778"></path>
                <path d="M18.9858012,54.0121959 L18.9858012,60.6495108" id="Shape" stroke="#128BF7" stroke-width="2.77778"></path>
                <path d="M22.2183961,57.4183705 L15.5780933,57.4183705" id="Shape" stroke="#128BF7" stroke-width="2.77778"></path>
                <path d="M36.9979716,126.028457 L36.9979716,132.665772" id="Shape" stroke="#128BF7" stroke-width="2.77778"></path>
                <path d="M40.2305665,129.434632 L33.5902637,129.434632" id="Shape" stroke="#128BF7" stroke-width="2.77778"></path>
                <path d="M85.1926978,102.185236 L85.1926978,108.82255" id="Shape" stroke="#128BF7" stroke-width="2.77778"></path>
                <path d="M88.4252927,105.59141 L81.7849899,105.59141" id="Shape" stroke="#128BF7" stroke-width="2.77778"></path>
            </g>
        </g>
    </g>
</svg>